<mxfile host="app.diagrams.net" modified="2024-06-15T13:10:00.000Z" agent="5.0 (Windows)" etag="vwx234" version="21.3.7">
  <diagram id="yourmedia-aws-architecture" name="YourMedia AWS Architecture">
    <mxGraphModel dx="1422" dy="798" grid="1" gridSize="10" guides="1" tooltips="1" connect="1" arrows="1" fold="1" page="1" pageScale="1" pageWidth="1169" pageHeight="827" math="0" shadow="0">
      <root>
        <mxCell id="0" />
        <mxCell id="1" parent="0" />
        
        <!-- Title -->
        <mxCell id="title" value="YourMedia AWS Architecture" style="text;html=1;strokeColor=none;fillColor=none;align=center;verticalAlign=middle;whiteSpace=wrap;rounded=0;fontSize=24;fontStyle=1" vertex="1" parent="1">
          <mxGeometry x="400" y="10" width="400" height="30" as="geometry" />
        </mxCell>
        
        <!-- Legend -->
        <mxCell id="legend-box" value="" style="rounded=0;whiteSpace=wrap;html=1;fillColor=#f5f5f5;strokeColor=#666666;fontColor=#333333;" vertex="1" parent="1">
          <mxGeometry x="900" y="100" width="200" height="300" as="geometry" />
        </mxCell>
        
        <mxCell id="legend-title" value="Légende" style="text;html=1;strokeColor=none;fillColor=none;align=center;verticalAlign=middle;whiteSpace=wrap;rounded=0;fontSize=16;fontStyle=1" vertex="1" parent="1">
          <mxGeometry x="950" y="110" width="100" height="30" as="geometry" />
        </mxCell>
        
        <!-- Subnet Colors -->
        <mxCell id="legend-public-subnet" value="" style="rounded=0;whiteSpace=wrap;html=1;fillColor=#E6FFCC;strokeColor=#82b366;" vertex="1" parent="1">
          <mxGeometry x="910" y="150" width="20" height="20" as="geometry" />
        </mxCell>
        
        <mxCell id="legend-public-subnet-label" value="Sous-réseau public" style="text;html=1;strokeColor=none;fillColor=none;align=left;verticalAlign=middle;whiteSpace=wrap;rounded=0;" vertex="1" parent="1">
          <mxGeometry x="940" y="150" width="150" height="20" as="geometry" />
        </mxCell>
        
        <mxCell id="legend-private-subnet" value="" style="rounded=0;whiteSpace=wrap;html=1;fillColor=#FFF9CC;strokeColor=#d6b656;" vertex="1" parent="1">
          <mxGeometry x="910" y="180" width="20" height="20" as="geometry" />
        </mxCell>
        
        <mxCell id="legend-private-subnet-label" value="Sous-réseau privé" style="text;html=1;strokeColor=none;fillColor=none;align=left;verticalAlign=middle;whiteSpace=wrap;rounded=0;" vertex="1" parent="1">
          <mxGeometry x="940" y="180" width="150" height="20" as="geometry" />
        </mxCell>
        
        <!-- Security Group Types -->
        <mxCell id="legend-ec2-sg" value="" style="rounded=1;arcSize=10;dashed=1;strokeColor=#F59D56;fillColor=none;gradientColor=none;dashPattern=8 4;strokeWidth=2;" vertex="1" parent="1">
          <mxGeometry x="910" y="210" width="20" height="20" as="geometry" />
        </mxCell>
        
        <mxCell id="legend-ec2-sg-label" value="Groupe de sécurité EC2" style="text;html=1;strokeColor=none;fillColor=none;align=left;verticalAlign=middle;whiteSpace=wrap;rounded=0;" vertex="1" parent="1">
          <mxGeometry x="940" y="210" width="150" height="20" as="geometry" />
        </mxCell>
        
        <mxCell id="legend-rds-sg" value="" style="rounded=1;arcSize=10;dashed=1;strokeColor=#4C65B0;fillColor=none;gradientColor=none;dashPattern=8 4;strokeWidth=2;" vertex="1" parent="1">
          <mxGeometry x="910" y="240" width="20" height="20" as="geometry" />
        </mxCell>
        
        <mxCell id="legend-rds-sg-label" value="Groupe de sécurité RDS" style="text;html=1;strokeColor=none;fillColor=none;align=left;verticalAlign=middle;whiteSpace=wrap;rounded=0;" vertex="1" parent="1">
          <mxGeometry x="940" y="240" width="150" height="20" as="geometry" />
        </mxCell>
        
        <!-- Connection Types -->
        <mxCell id="legend-conn-1" value="" style="endArrow=classic;html=1;rounded=0;" edge="1" parent="1">
          <mxGeometry width="50" height="50" relative="1" as="geometry">
            <mxPoint x="910" y="280" as="sourcePoint" />
            <mxPoint x="930" y="280" as="targetPoint" />
          </mxGeometry>
        </mxCell>
        
        <mxCell id="legend-conn-1-label" value="Trafic réseau" style="text;html=1;strokeColor=none;fillColor=none;align=left;verticalAlign=middle;whiteSpace=wrap;rounded=0;" vertex="1" parent="1">
          <mxGeometry x="940" y="270" width="150" height="20" as="geometry" />
        </mxCell>
        
        <mxCell id="legend-conn-2" value="" style="endArrow=classic;html=1;rounded=0;dashed=1;" edge="1" parent="1">
          <mxGeometry width="50" height="50" relative="1" as="geometry">
            <mxPoint x="910" y="310" as="sourcePoint" />
            <mxPoint x="930" y="310" as="targetPoint" />
          </mxGeometry>
        </mxCell>
        
        <mxCell id="legend-conn-2-label" value="Accès API" style="text;html=1;strokeColor=none;fillColor=none;align=left;verticalAlign=middle;whiteSpace=wrap;rounded=0;" vertex="1" parent="1">
          <mxGeometry x="940" y="300" width="150" height="20" as="geometry" />
        </mxCell>
        
        <!-- Annotations -->
        <mxCell id="annotation-1" value="Architecture optimisée pour le Free Tier AWS" style="shape=note;strokeWidth=2;fontSize=14;size=20;whiteSpace=wrap;html=1;fillColor=#fff2cc;strokeColor=#d6b656;fontColor=#666600;" vertex="1" parent="1">
          <mxGeometry x="900" y="420" width="200" height="60" as="geometry" />
        </mxCell>
        
        <mxCell id="annotation-2" value="Tous les sous-réseaux publics sont dans la même AZ pour réduire les coûts de transfert de données" style="shape=note;strokeWidth=2;fontSize=14;size=20;whiteSpace=wrap;html=1;fillColor=#fff2cc;strokeColor=#d6b656;fontColor=#666600;" vertex="1" parent="1">
          <mxGeometry x="900" y="500" width="200" height="80" as="geometry" />
        </mxCell>
        
        <mxCell id="annotation-3" value="Monitoring via Prometheus et Grafana sur EC2 au lieu de ECS Fargate pour rester dans le Free Tier" style="shape=note;strokeWidth=2;fontSize=14;size=20;whiteSpace=wrap;html=1;fillColor=#fff2cc;strokeColor=#d6b656;fontColor=#666600;" vertex="1" parent="1">
          <mxGeometry x="900" y="600" width="200" height="80" as="geometry" />
        </mxCell>
      </root>
    </mxGraphModel>
  </diagram>
</mxfile>
